<svg xmlns="http://www.w3.org/2000/svg" width="333" height="210" viewBox="0 0 333 210">
    <defs>
        <linearGradient id="wzfmb35oob" x1="50%" x2="50%" y1="0%" y2="100%">
            <stop offset="0%" stop-color="#FFF" stop-opacity="0"/>
            <stop offset="100%" stop-color="#FFF" stop-opacity=".704"/>
        </linearGradient>
        <linearGradient id="remfwdwwyc" x1="50%" x2="50%" y1="0%" y2="100%">
            <stop offset="0%" stop-color="#FFF" stop-opacity="0"/>
            <stop offset="100%" stop-color="#FFF" stop-opacity=".3"/>
        </linearGradient>
        <radialGradient id="po9pgdsjwa" cx="60.641%" cy="50%" r="93.925%" fx="60.641%" fy="50%" gradientTransform="translate(0.606406,0.500000),scale(0.630631,1.000000),rotate(30.543975),translate(-0.606406,-0.500000)">
            <stop offset="0%" stop-color="#EBFFF2"/>
            <stop offset="100%" stop-color="#B9ECD2"/>
        </radialGradient>
    </defs>
    <g fill="none" fill-rule="evenodd">
        <g>
            <g transform="translate(-693.000000, -165.000000) translate(693.000000, 165.000000)">
                <rect width="333" height="210" fill="url(#po9pgdsjwa)" rx="14"/>
                <path fill="url(#wzfmb35oob)" d="M137 0h182c7.732 0 14 6.268 14 14v182c0 7.732-6.268 14-14 14h-35L137 0z"/>
                <path fill="url(#remfwdwwyc)" d="M0 0h182c7.732 0 14 6.268 14 14v182c0 7.732-6.268 14-14 14h-35L0 0z" transform="translate(98.000000, 105.000000) scale(-1, -1) translate(-98.000000, -105.000000)"/>
            </g>
        </g>
    </g>
</svg>
