<?xml version="1.0" encoding="UTF-8"?>
<svg width="129px" height="120px" viewBox="0 0 129 120" version="1.1" xmlns="http://www.w3.org/2000/svg" xmlns:xlink="http://www.w3.org/1999/xlink">
    <title>beneficiary-active</title>
    <defs>
        <linearGradient x1="11.3487067%" y1="25.9682594%" x2="72.8493957%" y2="59.5451037%" id="linearGradient-1">
            <stop stop-color="#72727E" offset="0%"></stop>
            <stop stop-color="#5D5D64" offset="100%"></stop>
        </linearGradient>
        <linearGradient x1="49.8074639%" y1="96.8882806%" x2="49.8074639%" y2="44.5076713%" id="linearGradient-2">
            <stop stop-color="#FFFFFF" offset="0%"></stop>
            <stop stop-color="#D6DEEA" offset="99.13%"></stop>
        </linearGradient>
    </defs>
    <g id="Web" stroke="none" stroke-width="1" fill="none" fill-rule="evenodd">
        <g id="BrightBank-GreenAssets" transform="translate(-709.000000, -1356.000000)">
            <g id="beneficiary-active" transform="translate(709.000000, 1356.000000)">
                <g id="19" fill-rule="nonzero">
                    <path d="M120,59.8578666 C120,75.3327429 114.16542,89.3478129 104.536737,99.8591153 C104.536737,99.8591153 104.536737,99.8591153 104.536737,100.151773 C90.823616,116.210804 65.1486768,125.554959 38.0150926,115.919308 C27.8034163,111.831385 17.59174,103.655541 16.7172498,101.61158 C-19.4608625,63.9457889 6.79707018,0 59.8970903,0 C93.1579125,0 120,26.8629916 120,59.8578666 Z" id="Path" fill="#FEF9DE"></path>
                    <path d="M104.24524,100.151773 C84.4048812,124.096314 42.6836857,128.184236 16.7172498,101.61158 L104.24524,100.151773 Z" id="Path" fill="#E9F0F8"></path>
                    <path d="M104.536737,100.152935 C90.823616,116.503463 65.1486768,125.55612 38.0150926,115.920469 C27.8034163,111.832547 17.59174,103.656702 16.7172498,101.612741 C19.343043,98.6931284 26.9289261,96.6491672 42.392189,90.2246257 C47.6437755,88.1806646 46.4766272,82.632936 46.4766272,71.5374787 C45.309479,70.0776724 44.1423307,67.7422145 43.850834,65.1140985 L42.6836857,64.5299437 C39.4737376,65.4055953 39.7663957,61.9018278 38.8907442,55.1869509 C38.5992474,52.2661769 38.8907442,51.9746801 40.3493892,51.3905253 L40.2158349,50.9387635 C36.1313966,41.5946093 35.3892994,29.3308424 44.4338274,24.9514234 C43.850834,23.7831138 42.392189,19.9878496 42.392189,18.81954 C46.768124,19.4036948 54.5131108,20.8635011 59.1805425,19.9878496 C66.1834321,18.5280432 74.0608119,21.1561592 76.9781019,27.8710361 C90.3997263,33.127268 83.6883335,45.9751896 82.2296885,51.2302602 C81.9381917,51.5229183 81.9381917,52.1059117 81.9381917,52.1059117 C81.9381917,52.1059117 81.9381917,52.3985698 82.2296885,52.3985698 C83.10534,52.6900665 84.4048812,52.5588349 84.1133845,54.8942928 C83.530391,61.3188343 83.530391,65.1140985 80.3204429,64.238447 L77.403153,69.2020208 C77.403153,71.5374787 76.5275014,82.925594 77.403153,85.55371 C77.9861464,87.5976711 79.4459528,89.0574775 81.1960945,89.6416323 C96.0763639,96.3565092 101.32795,97.8163155 104.536737,100.152935 Z" id="Path" fill="#FFFFFF"></path>
                    <path d="M104.536737,100.151773 C90.823616,116.502301 65.1486768,125.554959 38.0150926,115.919308 C27.8034163,111.831385 17.59174,103.655541 16.7172498,101.61158 C20.801688,97.2321607 42.1006922,91.9759288 45.0179822,88.1806646 C53.1868588,99.2761218 70.1087666,99.2761218 78.2788045,88.1806646 C78.8617979,89.0563161 79.7374495,89.6404709 80.613101,89.9319677 C96.0763639,96.3553478 101.32795,97.8151542 104.536737,100.151773 Z" id="Path" fill="#F7D100"></path>
                    <path d="M82.3887923,51.3882027 C82.6884184,49.8854267 81.7907014,47.7822371 81.1914491,46.2794611 C81.1914491,45.9786737 80.891823,45.6790475 80.891823,45.6790475 C78.1975106,40.570306 72.5080983,38.4659551 67.1171508,38.166329 C53.0440137,37.5647541 51.8466706,40.2695186 47.3546014,36.0619781 C49.450823,39.0675301 48.8515707,47.4814496 39.8685938,50.1862141 C33.5810906,35.7611906 36.5750291,26.44607 42.8636936,23.440518 C40.7674721,18.9333514 40.7674721,17.129788 40.7674721,17.129788 C40.7674721,17.129788 54.2413569,19.533765 58.733426,18.3317765 C64.7224645,17.129788 73.7054414,18.632564 76.9990061,26.44607 C91.9710215,31.855599 83.5872968,46.8810361 82.3887923,51.3882027 Z" id="Path" fill="url(#linearGradient-1)"></path>
                    <path d="M46.0771257,71.0450699 C45.7728542,70.7407984 45.7728542,70.4365269 45.4685828,70.1322554 L45.4685828,69.5237124 C47.2942117,72.5664273 48.512459,72.8706988 58.5592248,79.8666204 C60.9945581,81.9965208 64.3438671,81.9965208 66.7792004,79.8666204 C67.0834719,79.5623489 77.1302377,70.7407984 77.4345092,70.1322554 C77.4345092,71.3493414 77.1302377,84.1252599 77.7387807,85.6466173 L45.7728542,85.6466173 C46.0771257,84.7338028 46.0771257,72.8706988 46.0771257,71.0450699 Z" id="Path" fill="url(#linearGradient-2)"></path>
                </g>
                <g id="Group-16" transform="translate(93.000000, 84.000000)">
                    <circle id="Oval" fill="#F7D100" cx="18" cy="18" r="18"></circle>
                    <g id="Group-15" transform="translate(12.089453, 11.677344)" stroke="#3B4151" stroke-linecap="round" stroke-linejoin="round" stroke-width="1.8">
                        <line x1="5.91054687" y1="0" x2="5.91054687" y2="11.8210938" id="Path-23"></line>
                        <line x1="0" y1="5.91054688" x2="11.8210938" y2="5.91054688" id="Path-23-Copy"></line>
                    </g>
                </g>
            </g>
        </g>
    </g>
</svg>