<?xml version="1.0" encoding="UTF-8"?>
<svg width="351px" height="558px" viewBox="0 0 351 558" version="1.1" xmlns="http://www.w3.org/2000/svg" xmlns:xlink="http://www.w3.org/1999/xlink">
    <title>Group 8</title>
    <defs>
        <linearGradient x1="60.6405589%" y1="50%" x2="60.6405589%" y2="128.658813%" id="linearGradient-1">
            <stop stop-color="#FFFFFF" offset="0%"></stop>
            <stop stop-color="#C3EDF6" offset="100%"></stop>
        </linearGradient>
    </defs>
    <g id="Blue" stroke="none" stroke-width="1" fill="none" fill-rule="evenodd">
        <g id="Group-8">
            <path d="M8,0 L343,0 C347.418278,-8.11624501e-16 351,3.581722 351,8 L351,550 C351,554.418278 347.418278,558 343,558 L8,558 C3.581722,558 5.41083001e-16,554.418278 0,550 L0,8 C-5.41083001e-16,3.581722 3.581722,8.11624501e-16 8,0 Z" id="Rectangle-Copy-8" fill="url(#linearGradient-1)" opacity="0.300000012"></path>
            <g id="Group-16" transform="translate(20.000000, 83.000000)">
                <g id="Group-15" transform="translate(56.552357, 48.756691)" stroke="#BAC2CC" stroke-dasharray="3,4">
                    <line x1="100.089059" y1="101.852391" x2="100.089059" y2="0" id="Path-17"></line>
                    <line x1="132.007859" y1="113.568869" x2="132.007859" y2="11.7164783" id="Path-17-Copy" transform="translate(132.007859, 62.642674) rotate(39.000000) translate(-132.007859, -62.642674) "></line>
                    <line x1="148.619608" y1="139.302567" x2="148.619608" y2="37.4501766" id="Path-17-Copy-2" transform="translate(148.619608, 88.376372) rotate(74.000000) translate(-148.619608, -88.376372) "></line>
                    <line x1="67.2177581" y1="113.391626" x2="67.2177581" y2="11.5392348" id="Path-17-Copy-3" transform="translate(67.217758, 62.465430) rotate(-40.000000) translate(-67.217758, -62.465430) "></line>
                    <line x1="99.6266717" y1="101.281391" x2="0" y2="80.1050878" id="Path-17-Copy-4"></line>
                </g>
                <g id="Group-13">
                    <g id="Group" transform="translate(85.686144, 92.271913)">
                        <polygon id="Path" fill="#CED7E2" fill-rule="nonzero" points="38.5485837 103.834754 26.3965838 135.844371 37.048387 135.844371 51.4513596 109.702732"></polygon>
                        <polygon id="Path" fill="#CED7E2" fill-rule="nonzero" points="103.211534 103.834754 115.363534 135.844371 104.711731 135.844371 90.3087584 109.702732"></polygon>
                        <path d="M76.3557093,116.316065 C108.422245,116.316065 134.417523,90.2692892 134.417523,58.1512566 C134.417523,26.0332239 108.422245,0 76.3557093,0 C44.2891739,0 18.2938953,26.0332239 18.2938953,58.1512566 C18.2938953,90.2692892 44.2891739,116.316065 76.3557093,116.316065 Z" id="Path" fill="#CED7E2" fill-rule="nonzero"></path>
                        <path d="M70.9552721,116.316065 C103.021808,116.316065 129.017086,90.2692892 129.017086,58.1512566 C129.017086,26.0332239 103.021808,0 70.9552721,0 C38.8887367,0 12.8934582,26.0332239 12.8934582,58.1512566 C12.8934582,90.2692892 38.8887367,116.316065 70.9552721,116.316065 Z" id="Path" fill="#E1E5ED" fill-rule="nonzero"></path>
                        <path d="M70.9552721,102.032349 C95.1495015,102.032349 114.763185,82.3956281 114.763185,58.1512566 C114.763185,33.920437 95.1495015,14.2701639 70.9552721,14.2701639 C46.7596875,14.2701639 27.1460046,33.920437 27.1460046,58.1512566 C27.1460046,82.3956281 46.7596875,102.032349 70.9552721,102.032349 Z" id="Path" fill="#FFFFFF" fill-rule="nonzero"></path>
                        <path d="M70.9552721,88.9683056 C87.9412393,88.9683056 101.711338,75.1724587 101.711338,58.1512566 C101.711338,41.1436064 87.9412393,27.3477594 70.9552721,27.3477594 C53.969305,27.3477594 40.1992067,41.1436064 40.1992067,58.1512566 C40.1992067,75.1724587 53.969305,88.9683056 70.9552721,88.9683056 Z" id="Path" fill="#E1E5ED" fill-rule="nonzero"></path>
                        <path d="M70.9552721,75.131803 C80.3182885,75.131803 87.9087147,67.52918 87.9087147,58.1512566 C87.9087147,48.7733331 80.3182885,41.1707102 70.9552721,41.1707102 C61.5922558,41.1707102 54.0018296,48.7733331 54.0018296,58.1512566 C54.0018296,67.52918 61.5922558,75.131803 70.9552721,75.131803 Z" id="Path" fill="#FFFFFF" fill-rule="nonzero"></path>
                        <path d="M41.5489772,47.9331146 L71.4051956,55.7525681 C72.7549661,56.0507101 73.5043869,57.5549724 73.2048896,58.9101637 C72.9053923,60.2653549 71.4051956,61.0107101 70.0540699,60.7125681 L4.49127241,43.5829506 C3.14150192,43.2848086 2.39072597,41.7805463 2.69022323,40.425355 C2.99107569,39.0701638 4.49127241,38.3248086 5.84104289,38.6229507 L28.3453488,44.4773769" id="Path" fill="#1C3754" fill-rule="nonzero"></path>
                        <path d="M32.5477969,40.8725681 L31.7970209,39.3683058 C30.8971739,37.5659015 29.0961248,36.0616392 27.1460046,35.6144261 L6.74224508,30.356284 C5.24204836,30.058142 4.04134891,31.4133332 4.79212487,32.7549725 L9.44314124,42.2277594 L0.740103024,48.0821856 C-0.459241233,48.9901637 -0.159743967,50.7925681 1.34045275,51.2397812 L21.7455674,56.4979233 C23.6956876,57.1077593 25.9453051,56.6469943 27.595928,55.454426 L34.6469881,50.6434971 C35.8475873,49.88459 36.1471848,48.3938796 35.5481903,47.1877594 L32.5477969,40.8725681 Z" id="Path" fill="#F7D100"></path>
                        <line x1="2.99107569" y1="137.050491" x2="138.018266" y2="137.050491" id="Path" stroke="#EAEEF9" stroke-width="2" stroke-linecap="round" stroke-linejoin="round"></line>
                    </g>
                    <path d="M256.06516,105.015963 C257.514596,103.865087 261.320826,103.331348 264.404839,103.331348 C266.788319,103.331348 271.401829,104.131957 272.744518,105.032642 L272.744518,131.052441 C270.295988,130.018321 266.052759,129.551299 264.404839,129.551299 C263.367383,129.551299 258.827261,129.634695 256.06516,130.952365 L256.06516,105.015963 Z M291.091812,105.032642 L291.091812,131.052441 C288.643282,130.018321 284.400053,129.551299 282.752133,129.551299 C281.714677,129.551299 277.174555,129.634695 274.412454,130.952365 L274.412454,105.015963 C275.86189,103.865087 279.668119,103.331348 282.752133,103.331348 C285.135613,103.331348 289.749123,104.131957 291.091812,105.032642 Z M297.091377,105.849931 L292.921537,105.015963 L292.759747,105.015963 L292.759747,104.649017 C292.759747,104.432186 292.676351,104.232033 292.529572,104.06524 C290.948369,102.413983 284.815369,101.663412 282.752133,101.663412 C281.596253,101.663412 276.095401,101.763488 273.546795,103.581538 C271.368471,102.263869 266.25458,101.663412 264.404839,101.663412 C263.153887,101.663412 256.802387,101.780168 254.625731,104.06524 C254.478953,104.232033 254.397224,104.432186 254.397224,104.649017 L254.397224,105.015963 L254.235434,105.015963 L250.065595,105.849931 C249.67363,105.916648 249.393417,106.266915 249.393417,106.66722 L249.393417,135.856096 C249.393417,136.089607 249.490157,136.323118 249.663622,136.473232 C249.83542,136.640026 250.053919,136.706743 250.299106,136.690064 L268.79985,135.088846 C269.378623,136.122966 271.049895,136.690064 273.578486,136.690064 C276.107076,136.690064 277.77668,136.122966 278.357122,135.088846 L296.856198,136.690064 L296.929587,136.690064 C297.136411,136.690064 297.338231,136.623346 297.493349,136.473232 C297.665147,136.323118 297.763555,136.089607 297.763555,135.856096 L297.763555,106.66722 C297.763555,106.266915 297.481674,105.916648 297.091377,105.849931 L297.091377,105.849931 Z" id="Fill-2028" fill="#E1E5ED" fill-rule="nonzero"></path>
                    <g id="Combined-Shape-3" transform="translate(209.446433, 21.436007)" fill="#E1E5ED" fill-rule="nonzero">
                        <g id="Combined-Shape-2">
                            <path d="M13.3733035,29.1805211 C13.5548859,29.0589399 13.7759427,29.0178865 13.9843676,29.0684138 L13.9843676,29.0684138 L28.5867468,32.3858444 C28.6009576,32.3905813 28.6151684,32.3953183 28.6293792,32.3984762 C28.9688593,32.48532 29.2893916,32.5800586 29.5893972,32.687429 C29.605187,32.6937449 29.6225557,32.7000608 29.6383455,32.7063767 C30.9536333,33.1848068 31.866282,33.8795566 32.4362927,34.8222059 C32.5420842,35.0006303 32.6494546,35.1790547 32.7331404,35.3827427 C32.7678779,35.4664285 32.7899836,35.5611671 32.8199841,35.6480109 C32.898933,35.8722256 32.966829,36.1074932 33.0189352,36.3648664 C33.0394619,36.4674999 33.0536727,36.5732914 33.0694625,36.6790829 C33.1199898,37.0232998 33.1594642,37.3801486 33.1594642,37.7812088 L33.1594642,37.7812088 L33.1594642,38.0938462 C33.1594642,38.4570109 32.9115648,38.7712274 32.5610319,38.8596501 L32.5610319,38.8596501 L29.9051926,39.5228204 C28.9546485,39.759667 27.9330504,39.7849306 26.9604005,39.5922954 L26.9604005,39.5922954 L18.3976083,37.8806843 C17.9854953,37.7922616 17.5560136,38.0701616 17.4691698,38.4996433 C17.3839051,38.9275461 17.660226,39.342817 18.0897078,39.4280818 L18.0897078,39.4280818 L26.6525,41.1412718 C27.1846153,41.2470633 27.7293623,41.3007485 28.2756884,41.3007485 C28.9578064,41.3007485 29.6336086,41.2186417 30.287305,41.0544281 L30.287305,41.0544281 L32.9431443,40.3912578 C33.9994799,40.1275686 34.7384412,39.1817614 34.7384412,38.0938462 L34.7384412,38.0938462 L34.7384412,37.7812088 C34.7384412,37.3296214 34.6989668,36.9175084 34.6437026,36.5243431 L34.6437026,36.5243431 L40.0201192,34.7764156 C40.517497,34.6500974 40.9785582,34.5932542 41.4411985,34.5932542 C43.8191379,34.5932542 46.1686556,36.0964403 47.2865713,38.3322718 C47.3828889,38.524907 47.3955207,38.7475427 47.3244668,38.9496518 C47.2534128,39.1517608 47.101831,39.3159744 46.9060379,39.4043971 L46.9060379,39.4043971 L35.8531989,44.4097542 C30.7167868,46.5161095 28.436744,47.3703361 26.444075,47.3703361 C25.0829969,47.3703361 23.9177119,46.9692759 22.4192627,46.4024232 L22.4192627,46.4024232 L10.5911461,42.7202488 C10.180612,42.5923517 9.94850243,42.161291 10.0669257,41.749178 C10.8658881,38.9701785 12.31381,33.7106061 13.0338235,29.6984256 C13.0717189,29.4868427 13.1948791,29.2989444 13.3733035,29.1805211 Z M0.758420661,23.685285 L0.870016322,23.6885234 C2.36688651,23.8416841 9.92229141,24.6848578 11.596007,26.2701507 C11.7712735,26.4359433 11.8612752,26.6712109 11.8391695,26.9112154 C11.67661,28.7737315 11.1217705,31.4445888 10.4757523,34.1083008 L10.3053555,34.8024839 C9.21558403,39.1911585 7.94839473,43.3667622 7.86172644,43.6515294 C7.75909293,43.9846936 7.4527714,44.2120663 7.10539646,44.2120663 L7.10539646,44.2120663 L0.789488495,44.2120663 C0.353690846,44.2120663 0,43.8583754 0,43.4225778 L0,43.4225778 L0,24.4748539 C0,24.2506392 0.0947386194,24.0374773 0.260531203,23.8890534 C0.42474481,23.7390506 0.645801589,23.6664177 0.870016322,23.6885234 Z M30.2315672,0.230925385 C30.5410466,-0.0769751283 31.0400034,-0.0769751283 31.3494829,0.230925385 L31.3494829,0.230925385 L47.1392528,16.0206953 C47.3634675,16.248068 47.4313635,16.5859691 47.3097823,16.8812378 C47.1882011,17.1765064 46.8992483,17.3691416 46.5802949,17.3691416 L46.5802949,17.3691416 L42.6328524,17.3691416 L42.6328524,32.2557367 C42.6328524,32.4720566 42.5428508,32.6789025 42.388111,32.8289054 C42.2286343,32.9773292 41.9933668,33.0531201 41.8038895,33.0436462 L41.8038895,33.0436462 L41.5986225,33.0278565 C40.9528209,32.9631184 40.3101773,33.0752258 39.6896393,33.2283865 C39.6880604,33.2299655 39.5333206,33.2741769 39.5317416,33.2757558 L39.5317416,33.2757558 L35.7706184,34.497884 C35.6916696,34.5231477 35.6095628,34.5357795 35.527456,34.5357795 C35.3632424,34.5357795 35.2006077,34.4836732 35.0632367,34.3841977 C34.8579697,34.2373528 34.7379675,33.9989273 34.7379675,33.746291 L34.7379675,33.746291 L34.7379675,23.6850496 L26.8430825,23.6850496 L26.8430825,29.3819986 C26.8430825,29.6220031 26.7341331,29.8493758 26.5462349,29.9993786 C26.3599156,30.1493814 26.1088582,30.2078036 25.8799066,30.1525394 L25.8799066,30.1525394 L19.9003207,28.7930402 C19.5482088,28.7140913 19.2955725,28.4061908 19.2845197,28.0461841 L19.2845197,28.0461841 L18.9718822,17.3691416 L15.0007551,17.3691416 C14.6818018,17.3691416 14.392849,17.1765064 14.2712677,16.8812378 C14.1496865,16.5859691 14.2175825,16.248068 14.4417972,16.0206953 L14.4417972,16.0206953 Z" id="Combined-Shape"></path>
                        </g>
                    </g>
                    <g id="Fill-233" transform="translate(156.571151, 21.847993) rotate(-90.000000) translate(-156.571151, -21.847993) translate(134.723157, 0.003003)" fill="#E1E5ED" fill-rule="nonzero">
                        <path d="M37.7876444,24.3557082 C37.6594871,24.6105664 37.4031726,24.757656 37.1352074,24.757656 C37.0259824,24.757656 36.9153011,24.7328984 36.8104452,24.6819267 C36.450731,24.5013415 36.3050977,24.0644416 36.4842267,23.7047275 C36.9633601,22.7479169 36.9633601,20.9420643 36.4842267,19.9867101 C36.3050977,19.6269959 36.450731,19.1900961 36.8104452,19.0095108 C37.1701594,18.8318382 37.6070592,18.9760152 37.7876444,19.3357293 C38.4677518,20.6959441 38.4677518,22.9954934 37.7876444,24.3557082 M43.6464709,21.3906148 C43.1396671,18.699312 40.6697269,16.7449135 37.7730811,16.7449135 C37.6522055,16.7449135 37.5313299,16.7492825 37.3827839,16.7580205 L30.2030637,17.4395842 L19.5004746,2.45828961 C18.2888058,0.942247261 16.3970296,0 14.5635068,0 L10.922675,0 C10.6692731,0 10.4362599,0.131069944 10.3022773,0.346607184 C10.169751,0.560688092 10.1581003,0.82865331 10.2702379,1.05438488 L18.5422077,17.5954118 L7.05756799,18.8726155 L4.33131316,10.6923947 C4.26432186,10.4928772 4.11431959,10.3312242 3.91917101,10.2496696 C3.72256609,10.1695713 3.50265985,10.176853 3.31479293,10.2715146 L0.402127519,11.7278473 C0.119598974,11.8691116 -0.0405976236,12.1778541 0.0089176884,12.4909656 L1.4477744,21.8449906 L0.0089176884,31.2004719 C-0.0405976236,31.5135834 0.119598974,31.8208696 0.402127519,31.9635902 L3.31479293,33.4199229 C3.50411618,33.5145846 3.72402242,33.5204099 3.91917101,33.4403116 C4.11431959,33.3602133 4.26432186,33.1985604 4.33131316,32.9990428 L7.05756799,24.818822 L18.5422077,26.0945694 L10.2702379,42.6370526 C10.1581003,42.8627842 10.169751,43.1307494 10.3022773,43.3448303 C10.4362599,43.5603676 10.6692731,43.6899812 10.922675,43.6899812 L15.2916731,43.6899812 C17.3640346,43.6899812 18.4650221,42.5278277 19.523776,41.2011086 L30.2030637,26.2518534 L37.4089979,26.9567184 C37.5313299,26.9640001 37.6536618,26.9669127 37.7745374,26.9669127 L37.7745374,26.9669127 C40.6697269,26.9669127 43.1396671,25.0139706 43.6464709,22.3226677 C43.6799666,22.1479078 43.6959862,21.9906239 43.6959862,21.8566413 C43.6959862,21.7212023 43.6799666,21.5639184 43.6464709,21.3906148" id="Fill-232"></path>
                    </g>
                    <path d="M68.6443404,31.4434721 C74.6875398,31.4434721 79.2307199,32.2597045 80.796962,33.5995576 C82.0813729,34.7084015 86.04703,43.8717647 86.829381,45.6890367 C86.8740428,45.796841 86.8894434,45.9046452 86.8863633,46.0124495 C88.948505,47.1982965 90.1189514,48.9231648 90.5594088,51.4642656 L90.5594088,51.4642656 L85.9885077,51.4642656 C84.7610791,51.4642656 83.5582914,51.9724857 82.7251184,52.8195193 L82.7251184,52.8195193 L77.1670381,57.8247176 C76.9314088,58.0403262 76.8497855,58.3791396 76.96375,58.6717512 C77.0777146,58.9797634 77.3641659,59.1645707 77.6829585,59.1645707 L77.6829585,59.1645707 L90.4177232,59.1645707 C90.2159752,60.6276287 90.0003667,61.5824665 89.9818859,61.6594696 C89.9018028,61.998283 89.5907104,62.2446928 89.2334163,62.2446928 L89.2334163,62.2446928 L89.2334163,65.6790289 C89.2334163,67.1882887 88.0167681,68.4049369 86.5213688,68.4049369 L86.5213688,68.4049369 L81.1650365,68.4049369 C79.6696373,68.4049369 78.4529891,67.1882887 78.4529891,65.6790289 L78.4529891,65.6790289 L78.4529891,62.9223196 L76.4293489,63.738552 C76.3384853,63.7693532 76.2414614,63.7847538 76.1428975,63.7847538 L76.1428975,63.7847538 L59.2022262,63.7847538 C59.1052023,63.7847538 59.0066384,63.7693532 58.9157748,63.738552 L58.9157748,63.738552 L56.8921346,62.9223196 L56.8921346,65.6790289 C56.8921346,67.1882887 55.6754864,68.4049369 54.1800871,68.4049369 L54.1800871,68.4049369 L48.8237549,68.4049369 C47.3283556,68.4049369 46.1117074,67.1882887 46.1117074,65.6790289 L46.1117074,65.6790289 L46.1117074,62.2446928 C45.7544132,62.2446928 45.4433209,61.998283 45.3632377,61.6594696 C45.344757,61.5824665 45.1291485,60.6276287 44.9274005,59.1645707 L44.9274005,59.1645707 L57.6621651,59.1645707 C57.9809578,59.1645707 58.2674091,58.9797634 58.3813736,58.6717512 C58.4953381,58.3791396 58.4137149,58.0403262 58.1780856,57.8247176 L58.1780856,57.8247176 L52.6523466,52.8503205 C51.7868323,51.9724857 50.5840446,51.4642656 49.356616,51.4642656 L49.356616,51.4642656 L44.7857148,51.4642656 C45.2261723,48.9231648 46.3966187,47.1982965 48.4587604,46.0124495 C48.4556803,45.9046452 48.4710809,45.796841 48.5172827,45.6890367 C49.2980937,43.8717647 53.2652909,34.7084015 54.5497018,33.5995576 C56.1144038,32.2597045 60.6575838,31.4434721 66.7007833,31.4434721 L66.7007833,31.4434721 Z M79.2230196,51.4642656 L56.1221041,51.4642656 C55.8110118,51.4642656 55.5291806,51.6490729 55.4105959,51.9416845 C55.2920112,52.2342961 55.3582338,52.5577089 55.5784626,52.788718 L55.5784626,52.788718 L61.7387067,58.9489622 C61.8819324,59.0875677 62.0775201,59.1645707 62.2823482,59.1645707 L62.2823482,59.1645707 L73.0627755,59.1645707 C73.2676036,59.1645707 73.4631913,59.0875677 73.6079571,58.9489622 L73.6079571,58.9489622 L79.7682012,52.788718 C79.9868899,52.5577089 80.0531125,52.2342961 79.9345278,51.9416845 C79.8159431,51.6490729 79.5341119,51.4642656 79.2230196,51.4642656 L79.2230196,51.4642656 Z M49.356616,53.0043266 C50.1882489,53.0043266 50.9675198,53.34314 51.5881644,53.9591644 L51.5881644,53.9591644 L55.6570057,57.6245097 L44.7502934,57.6245097 C44.6486494,56.5772682 44.5716464,55.4068218 44.5716464,54.1285711 C44.5716464,53.7281553 44.5947473,53.3739412 44.6163081,53.0043266 L44.6163081,53.0043266 Z M90.7288155,53.0043266 C90.7503764,53.3739412 90.7734773,53.7281553 90.7734773,54.1285711 C90.7734773,55.4068218 90.6964743,56.5772682 90.5948302,57.6245097 L90.5948302,57.6245097 L79.688118,57.6245097 L83.7908406,53.9283632 C84.3776039,53.34314 85.1584148,53.0043266 85.9885077,53.0043266 L85.9885077,53.0043266 Z M77.3641659,53.0043266 L72.7439828,57.6245097 L62.6011409,57.6245097 L57.9809578,53.0043266 L77.3641659,53.0043266 Z M68.6443404,32.9835332 L66.7007833,32.9835332 C60.4296548,32.9835332 56.5841224,33.8767686 55.5538216,34.770004 C54.9223966,35.3244259 52.5414622,40.2988231 50.4192581,45.1654159 C53.5594425,44.2259787 59.1298433,43.7639604 67.6725618,43.7639604 C76.2152804,43.7639604 81.7856811,44.2259787 84.9258656,45.1654159 C82.8036615,40.2988231 80.4227271,35.3244259 79.7913021,34.770004 C78.7610013,33.8767686 74.9154689,32.9835332 68.6443404,32.9835332 L68.6443404,32.9835332 Z" id="Combined-Shape" fill="#E1E5ED" fill-rule="nonzero"></path>
                    <g id="Combined-Shape-4" transform="translate(30.310924, 122.345811) rotate(-45.000000) translate(-30.310924, -122.345811) translate(8.877920, 100.912696)" fill="#E1E5ED" fill-rule="nonzero">
                        <path d="M17.8605394,7.14515211 C21.0568616,7.14515211 24.0488591,7.99388494 26.6436383,9.46416455 C25.4677004,10.3486185 24.6932674,11.7431694 24.6932674,13.3263276 C24.6932674,14.0264607 24.8504401,14.6880151 25.1190626,15.2909869 C23.0915342,13.7721267 20.5839145,12.8605247 17.8605394,12.8605247 C11.1635516,12.8605247 5.71537262,18.3087037 5.71537262,25.0056915 C5.71537262,31.7012506 11.1635516,37.1508583 17.8605394,37.1508583 C24.5575273,37.1508583 30.0057062,31.7012506 30.0057062,25.0056915 C30.0057062,22.2823165 29.0941043,19.7746967 27.575244,17.7457395 C28.176787,18.014362 28.8397702,18.1715347 29.5399034,18.1715347 C31.1216327,18.1715347 32.5161837,17.3985306 33.4020664,16.2211638 C34.8709172,18.8173718 35.7210788,21.8093694 35.7210788,25.0056915 C35.7210788,34.8689958 27.7252726,42.866231 17.8605394,42.866231 C7.99723513,42.866231 0,34.8689958 0,25.0056915 C0,15.1409584 7.99723513,7.14515211 17.8605394,7.14515211 Z M31.3566774,0.000507687028 C33.5770997,0.0476595111 36.0604291,0.0705210016 36.5419492,0.0305133933 C36.7962833,-0.0452152939 37.0649058,0.0219403343 37.2520843,0.210547631 L37.2520843,0.210547631 L42.6559691,5.61443244 C42.7902804,5.7487437 42.866009,5.93020678 42.866009,6.12024292 L42.866009,6.12024292 L42.866009,11.5241277 C42.866009,11.6170025 42.8474341,11.7055908 42.8145707,11.7884637 C42.8074265,11.8056098 42.793138,11.8198983 42.7831361,11.8370444 C42.7517016,11.9013423 42.7159805,11.9627826 42.6673998,12.0142209 C42.6616845,12.0185075 42.6616845,12.0256517 42.6559691,12.0299382 C42.6373941,12.0485132 42.6131038,12.0556574 42.5931,12.0728035 C42.547377,12.1085246 42.501654,12.1442457 42.447358,12.168536 C42.4102081,12.1856821 42.3716293,12.1942552 42.3316217,12.2042571 C42.2987583,12.2128301 42.2687526,12.2299762 42.2330315,12.2342628 L42.2330315,12.2342628 L32.9555529,13.3044663 C32.9555529,13.3116105 32.9569818,13.3187547 32.9569818,13.3258989 C32.9569818,15.2105431 31.4238331,16.7422629 29.5406178,16.7422629 C27.6559737,16.7422629 26.122825,15.2105431 26.122825,13.3258989 C26.122825,11.4412548 27.6559737,9.90953496 29.5406178,9.90953496 C29.547762,9.90953496 29.5534774,9.9109638 29.5620504,9.9109638 L29.5620504,9.9109638 L30.6308251,0.633485204 C30.6351116,0.596335282 30.6536866,0.564900733 30.6622597,0.530608497 C30.6736904,0.492029732 30.6808346,0.45487981 30.6979807,0.419158731 C30.7222711,0.363433848 30.7579922,0.317710867 30.7951421,0.271987886 C30.8108594,0.251984082 30.8180036,0.227693749 30.8365785,0.210547631 C30.8408651,0.204832258 30.8465804,0.203403415 30.8522958,0.199116885 C30.9037342,0.150536218 30.9651744,0.113386296 31.0309012,0.0805229036 C31.0466185,0.0733786879 31.0609069,0.0590902563 31.078053,0.0519460406 C31.1594971,0.019082648 31.2480854,0.000507687028 31.3409602,0.000507687028 L31.3409602,0.000507687028 Z M31.8810629,2.26522409 L30.9637456,10.2295958 C31.7024575,10.5710893 32.2968562,11.1654881 32.6369209,11.9027712 L32.6369209,11.9027712 L40.5998638,10.984025 L31.8810629,2.26522409 Z M36.4819378,1.46078539 C36.2437973,1.47666143 35.9173155,1.4851992 35.4644839,1.48702593 L35.1005758,1.48714745 C34.5821938,1.48565785 33.9279601,1.47761399 33.0998661,1.46364308 L33.0998661,1.46364308 L41.4371659,9.79951404 L41.4371659,6.41601345 Z" id="Combined-Shape"></path>
                    </g>
                </g>
            </g>
        </g>
    </g>
</svg>