<?xml version="1.0" encoding="UTF-8"?>
<svg width="129px" height="120px" viewBox="0 0 129 120" version="1.1" xmlns="http://www.w3.org/2000/svg" xmlns:xlink="http://www.w3.org/1999/xlink">
    <title>ledger-active</title>
    <defs>
        <path d="M120,59.8578666 C120,75.3327429 114.16542,89.3478129 104.536737,99.8591153 C104.536737,99.8591153 104.536737,99.8591153 104.536737,100.151773 C90.823616,116.210804 65.1486768,125.554959 38.0150926,115.919308 C27.8034163,111.831385 17.59174,103.655541 16.7172498,101.61158 C-19.4608625,63.9457889 6.79707018,0 59.8970903,0 C93.1579125,0 120,26.8629916 120,59.8578666 Z" id="path-1"></path>
    </defs>
    <g id="Web" stroke="none" stroke-width="1" fill="none" fill-rule="evenodd">
        <g id="BrightBank-GreenAssets" transform="translate(-546.000000, -1356.000000)">
            <g id="ledger-active" transform="translate(546.000000, 1356.000000)">
                <g id="Group-16">
                    <mask id="mask-2" fill="white">
                        <use xlink:href="#path-1"></use>
                    </mask>
                    <use id="Mask" fill="#FEF9DE" fill-rule="nonzero" xlink:href="#path-1"></use>
                    <g id="Group-25" mask="url(#mask-2)" fill="#F7D100" fill-rule="nonzero">
                        <g transform="translate(25.000000, 27.000000)" id="Combined-Shape">
                            <path d="M64.625,0 C65.7020833,0 66.5833333,0.877333333 66.5833333,1.95833333 L66.5833333,1.95833333 L66.5833333,15.6666667 L68.5416667,15.6666667 C69.61875,15.6666667 70.5,16.544 70.5,17.625 L70.5,17.625 L70.5,92.0416667 C70.5,93.1226667 69.61875,94 68.5416667,94 L68.5416667,94 L9.79166667,94 C4.39058333,94 0,89.6055 0,84.2083333 L0,84.2083333 L0,9.79166667 C0,4.3945 4.39058333,0 9.79166667,0 L9.79166667,0 Z M54.3026351,77.2672637 L15.7344227,77.2672637 L15.5908955,77.2730649 C14.691533,77.3460714 13.9844227,78.0990903 13.9844227,79.0172637 C13.9844227,79.9837621 14.7679244,80.7672637 15.7344227,80.7672637 L15.7344227,80.7672637 L54.3026351,80.7672637 L54.4461623,80.7614625 C55.3455248,80.6884561 56.0526351,79.9354371 56.0526351,79.0172637 C56.0526351,78.0507654 55.2691334,77.2672637 54.3026351,77.2672637 L54.3026351,77.2672637 Z M54.3026351,64.528927 L15.7344227,64.528927 L15.5908955,64.5347282 C14.691533,64.6077346 13.9844227,65.3607536 13.9844227,66.278927 C13.9844227,67.2454253 14.7679244,68.028927 15.7344227,68.028927 L15.7344227,68.028927 L54.3026351,68.028927 L54.4461623,68.0231258 C55.3455248,67.9501193 56.0526351,67.1971004 56.0526351,66.278927 C56.0526351,65.3124287 55.2691334,64.528927 54.3026351,64.528927 L54.3026351,64.528927 Z M20.8558961,26.4996364 C19.8055893,26.4996364 18.9548736,27.3503521 18.9548736,28.4006589 L18.9548736,28.4006589 L18.9548736,30.3114973 C15.9184728,31.1491251 13.67062,33.9106793 13.67062,37.2088388 C13.67062,41.177755 16.8935239,44.3973869 20.8558961,44.3973869 C22.7241987,44.3973869 24.2391272,45.9188593 24.2391272,47.780618 C24.2391272,49.6489206 22.7241987,51.167121 20.8558961,51.167121 C18.9875934,51.167121 17.472665,49.6489206 17.472665,47.780618 C17.472665,46.7335832 16.6219492,45.8795955 15.5716425,45.8795955 C14.5213357,45.8795955 13.67062,46.7335832 13.67062,47.780618 C13.67062,51.0820495 15.9184728,53.8403317 18.9548736,54.6812315 L18.9548736,54.6812315 L18.9548736,56.5986139 C18.9548736,57.6456486 19.8055893,58.4996364 20.8558961,58.4996364 C21.9062028,58.4996364 22.7569186,57.6456486 22.7569186,56.5986139 L22.7569186,56.5986139 L22.7569186,54.6812315 C25.7933194,53.8403317 28.0411721,51.0820495 28.0411721,47.780618 C28.0411721,43.8215178 24.8182683,40.5986139 20.8558961,40.5986139 C18.9875934,40.5986139 17.472665,39.0771415 17.472665,37.2088388 C17.472665,35.3438081 18.9875934,33.8256077 20.8558961,33.8256077 C22.7241987,33.8256077 24.2391272,35.3438081 24.2391272,37.2088388 C24.2391272,38.2591456 25.0898429,39.1098613 26.1401497,39.1098613 C27.1904564,39.1098613 28.0411721,38.2591456 28.0411721,37.2088388 C28.0411721,33.9106793 25.7933194,31.1491251 22.7569186,30.3114973 L22.7569186,30.3114973 L22.7569186,28.4006589 C22.7569186,27.3503521 21.9062028,26.4996364 20.8558961,26.4996364 Z M54.3026351,50.7905902 L39.5,50.7905902 L39.3564728,50.7963914 C38.4571103,50.8693979 37.75,51.6224168 37.75,52.5405902 C37.75,53.5070885 38.5335017,54.2905902 39.5,54.2905902 L39.5,54.2905902 L54.3026351,54.2905902 L54.4461623,54.284789 C55.3455248,54.2117826 56.0526351,53.4587636 56.0526351,52.5405902 C56.0526351,51.5740919 55.2691334,50.7905902 54.3026351,50.7905902 L54.3026351,50.7905902 Z M54.3026351,37.0522535 L39.5,37.0522535 L39.3564728,37.0580547 C38.4571103,37.1310611 37.75,37.8840801 37.75,38.8022535 C37.75,39.7687518 38.5335017,40.5522535 39.5,40.5522535 L39.5,40.5522535 L54.3026351,40.5522535 L54.4461623,40.5464523 C55.3455248,40.4734458 56.0526351,39.7204269 56.0526351,38.8022535 C56.0526351,37.8357552 55.2691334,37.0522535 54.3026351,37.0522535 L54.3026351,37.0522535 Z M62.6666667,3.91666667 L9.79166667,3.91666667 C6.55258333,3.91666667 3.91666667,6.55258333 3.91666667,9.79166667 C3.91666667,13.03075 6.55258333,15.6666667 9.79166667,15.6666667 L9.79166667,15.6666667 L54.8333333,15.6666667 L54.8333333,11.75 L9.79166667,11.75 C8.71066667,11.75 7.83333333,10.8726667 7.83333333,9.79166667 C7.83333333,8.71066667 8.71066667,7.83333333 9.79166667,7.83333333 L9.79166667,7.83333333 L56.7916667,7.83333333 C57.86875,7.83333333 58.75,8.71066667 58.75,9.79166667 L58.75,9.79166667 L58.75,15.6666667 L62.6666667,15.6666667 L62.6666667,3.91666667 Z"></path>
                        </g>
                    </g>
                </g>
                <g id="Group-16" transform="translate(93.000000, 84.000000)">
                    <circle id="Oval" fill="#F7D100" cx="18" cy="18" r="18"></circle>
                    <g id="Group-15" transform="translate(12.089453, 11.677344)" stroke="#3B4151" stroke-linecap="round" stroke-linejoin="round" stroke-width="1.8">
                        <line x1="5.91054687" y1="0" x2="5.91054687" y2="11.8210938" id="Path-23"></line>
                        <line x1="0" y1="5.91054688" x2="11.8210938" y2="5.91054688" id="Path-23-Copy"></line>
                    </g>
                </g>
            </g>
        </g>
    </g>
</svg>